<svg width="1200" height="800" viewBox="0 0 1200 800" fill="none" xmlns="http://www.w3.org/2000/svg">
  <defs>
    <linearGradient id="bg" x1="0" y1="0" x2="1200" y2="800" gradientUnits="userSpaceOnUse">
      <stop stop-color="#FAFAFA"/>
      <stop offset="1" stop-color="#F4F4F5"/>
    </linearGradient>
  </defs>

  <rect x="0" y="0" width="1200" height="800" rx="24" fill="url(#bg)"/>
  <rect x="70" y="80" width="1060" height="640" rx="16" fill="#FFFFFF" stroke="#E4E4E7"/>

  <rect x="70" y="80" width="520" height="640" rx="16" fill="#FFFFFF"/>
  <rect x="590" y="80" width="540" height="640" rx="16" fill="#FFFFFF"/>
  <line x1="590" y1="80" x2="590" y2="720" stroke="#E4E4E7"/>

  <text x="110" y="140" font-family="ui-sans-serif, system-ui, -apple-system, Segoe UI, Roboto" font-size="22" fill="#18181B">Editor</text>
  <text x="640" y="140" font-family="ui-sans-serif, system-ui, -apple-system, Segoe UI, Roboto" font-size="22" fill="#18181B">PDF Preview</text>

  <rect x="110" y="170" width="420" height="54" rx="10" fill="#F4F4F5" stroke="#E4E4E7"/>
  <text x="130" y="204" font-family="ui-sans-serif, system-ui, -apple-system, Segoe UI, Roboto" font-size="16" fill="#71717A">Summary</text>

  <rect x="110" y="236" width="420" height="54" rx="10" fill="#FFFFFF" stroke="#E4E4E7"/>
  <text x="130" y="270" font-family="ui-sans-serif, system-ui, -apple-system, Segoe UI, Roboto" font-size="16" fill="#71717A">Education</text>

  <rect x="110" y="302" width="420" height="54" rx="10" fill="#FFFFFF" stroke="#E4E4E7"/>
  <text x="130" y="336" font-family="ui-sans-serif, system-ui, -apple-system, Segoe UI, Roboto" font-size="16" fill="#71717A">Work experience</text>

  <rect x="110" y="368" width="420" height="54" rx="10" fill="#FFFFFF" stroke="#E4E4E7"/>
  <text x="130" y="402" font-family="ui-sans-serif, system-ui, -apple-system, Segoe UI, Roboto" font-size="16" fill="#71717A">Projects</text>

  <rect x="110" y="434" width="420" height="54" rx="10" fill="#FFFFFF" stroke="#E4E4E7"/>
  <text x="130" y="468" font-family="ui-sans-serif, system-ui, -apple-system, Segoe UI, Roboto" font-size="16" fill="#71717A">Skills</text>

  <rect x="110" y="520" width="420" height="160" rx="12" fill="#FFFFFF" stroke="#E4E4E7"/>
  <text x="130" y="556" font-family="ui-sans-serif, system-ui, -apple-system, Segoe UI, Roboto" font-size="16" fill="#18181B">Tailored bullets</text>
  <rect x="130" y="580" width="370" height="10" rx="5" fill="#E4E4E7"/>
  <rect x="130" y="602" width="330" height="10" rx="5" fill="#E4E4E7"/>
  <rect x="130" y="624" width="300" height="10" rx="5" fill="#E4E4E7"/>
  <rect x="130" y="648" width="84" height="26" rx="13" fill="#FAFAFA" stroke="#E4E4E7"/>
  <rect x="220" y="648" width="84" height="26" rx="13" fill="#FAFAFA" stroke="#E4E4E7"/>
  <rect x="310" y="648" width="84" height="26" rx="13" fill="#FAFAFA" stroke="#E4E4E7"/>
  <text x="152" y="666" font-family="ui-sans-serif, system-ui, -apple-system, Segoe UI, Roboto" font-size="12" fill="#71717A">Bold</text>
  <text x="244" y="666" font-family="ui-sans-serif, system-ui, -apple-system, Segoe UI, Roboto" font-size="12" fill="#71717A">Links</text>
  <text x="331" y="666" font-family="ui-sans-serif, system-ui, -apple-system, Segoe UI, Roboto" font-size="12" fill="#71717A">Bullets</text>

  <rect x="640" y="170" width="430" height="510" rx="12" fill="#FFFFFF" stroke="#E4E4E7"/>
  <rect x="670" y="210" width="260" height="14" rx="7" fill="#D4D4D8"/>
  <rect x="670" y="260" width="140" height="10" rx="5" fill="#D4D4D8"/>
  <rect x="670" y="286" width="380" height="10" rx="5" fill="#E4E4E7"/>
  <rect x="670" y="308" width="360" height="10" rx="5" fill="#E4E4E7"/>
  <rect x="670" y="330" width="330" height="10" rx="5" fill="#E4E4E7"/>
  <rect x="670" y="382" width="140" height="10" rx="5" fill="#D4D4D8"/>
  <rect x="670" y="408" width="380" height="10" rx="5" fill="#E4E4E7"/>
  <rect x="670" y="430" width="300" height="10" rx="5" fill="#E4E4E7"/>
  <rect x="670" y="452" width="350" height="10" rx="5" fill="#E4E4E7"/>

  <text x="600" y="770" text-anchor="middle" font-family="ui-sans-serif, system-ui, -apple-system, Segoe UI, Roboto" font-size="14" fill="#71717A">
    Replace this file: public/landing-preview.svg
  </text>
</svg>
