<svg width="3644" height="1774" viewBox="0 0 3644 1774" fill="none" xmlns="http://www.w3.org/2000/svg">
<path fill-rule="evenodd" clip-rule="evenodd" d="M1.66205 1657.96C16.0166 1629.25 27.9114 1598.95 40.615 1569.48C69.856 1501.66 100.72 1434.39 131.684 1367.34C143.119 1342.56 153.812 1317.45 164.97 1292.55C168.388 1284.92 172.476 1268.03 179.518 1263.73C200.753 1264.44 222.238 1263.41 243.501 1263.36C250.753 1263.35 262.078 1261.1 268.676 1263.4C312.726 1360.23 355.762 1457.84 398.05 1555.47C409.512 1581.93 420.1 1608.83 431.806 1635.17C434.864 1642.04 437.828 1648.96 440.825 1655.86C441.806 1658.12 444.826 1662.17 444.615 1664.53C411.706 1666.52 377.019 1666.22 344.1 1664.64C334.471 1638.56 325.341 1611.45 313.828 1586.17C311.086 1584.01 304.787 1585.4 301.324 1585.47C289.341 1585.75 277.302 1585.53 265.319 1585.42C220.222 1585 172.72 1581.48 127.873 1586.46C122.338 1593.53 119.618 1604.68 116.299 1613.03C109.429 1630.34 102.992 1647.99 95.5236 1665.04C77.7119 1667.53 57.9889 1665.22 40 1665.02C27.0139 1664.88 12.759 1666.62 0 1664.44C0.786704 1659.86 0.204982 1662.01 1.66205 1657.96ZM165.374 1500.25C163.584 1504.6 164.299 1502.34 163.258 1507.04C185.59 1504.28 209.546 1506.93 232.072 1506.83C247.391 1506.75 265.551 1503.86 280.593 1506.49C278.044 1498.44 273.086 1490.32 269.839 1482.43C259.058 1456.22 248.377 1430 236.981 1404.05C232.809 1394.55 229.169 1374.14 220.648 1368.34C201.102 1411.43 187.086 1458.28 165.374 1500.25Z" fill="#11104A"/>
<path fill-rule="evenodd" clip-rule="evenodd" d="M488.991 1358.28C492.199 1354.15 503.401 1355.86 508.642 1355.86C525.662 1355.88 542.858 1355.15 559.856 1355.71C563.911 1355.85 574.116 1354 577.152 1356.21C578.044 1368.83 578.099 1381.79 577.955 1394.44C585.784 1389.66 591.252 1379.27 598.936 1373.45C617.163 1359.64 640.338 1352.98 662.853 1350.67C677.551 1349.16 692.072 1350.49 706.526 1353.24C796.692 1370.37 834.255 1466.02 817.989 1548.51C804.947 1614.68 747.828 1667.22 679.867 1670.77C654.138 1672.12 627.811 1666.4 605.795 1652.82C598.637 1648.41 592.432 1643.15 586.509 1637.16C585.169 1635.81 583.606 1634.67 582.421 1633.19C581.135 1631.57 578.664 1626.33 578.52 1628.39C577.651 1640.6 579.285 1653.76 579.124 1666.14C578.698 1699.03 578.432 1732.01 579.207 1764.85C550.288 1758.17 517.412 1769.72 488.349 1764.64C489.385 1686.63 488.144 1608.49 488.315 1530.46C488.443 1473.11 490.288 1415.61 488.991 1358.28ZM578.232 1503.42C577.324 1518.78 579.706 1535.31 585.795 1549.5C605.9 1596.3 666.421 1609.59 704.327 1574.93C720.864 1559.81 728.648 1536.26 729.761 1514.39C731.08 1488.42 721.883 1460.29 701.817 1443.02C666.227 1412.38 609.13 1423.81 588.177 1465.07C582.105 1477.03 579.03 1490.06 578.232 1503.42Z" fill="#12104A"/>
<path fill-rule="evenodd" clip-rule="evenodd" d="M883.019 1600.34C887.019 1567.64 884.376 1532.92 884.337 1500.01C884.277 1452.21 885.684 1404.11 883.252 1356.37C912.182 1356.22 941.362 1355.08 970.277 1356.39C969.916 1368.88 970.144 1382.24 970.947 1394.71C979.257 1390.01 985.135 1379.22 993.296 1373.47C1013.14 1359.47 1036.55 1352.38 1060.67 1350.49C1077.35 1349.19 1095.46 1350.7 1111.46 1355.74C1127.32 1360.72 1142.65 1366.68 1156.33 1376.39C1210.02 1414.49 1228.78 1483.46 1215.7 1546.19C1201.87 1612.55 1149.96 1666.76 1080.17 1670.91C1054.32 1672.45 1027.74 1667.96 1004.78 1655.71C996.482 1651.29 989.379 1645.79 982.465 1639.47C980.249 1637.45 977.423 1635.16 975.445 1632.98C974.758 1632.21 974.714 1629.73 973.867 1630.32C972.72 1631.1 973.501 1633.06 973.318 1634.44C976.753 1665.49 973.357 1698.59 973.457 1729.88C973.495 1741.47 971.988 1755.14 974.437 1766.42C968.886 1769.44 954.282 1766.27 947.806 1766.03C926.481 1765.23 904.742 1764.94 883.49 1766.56C879.191 1750.78 882.77 1729.62 882.703 1713.25C882.559 1675.76 881.03 1637.78 883.019 1600.34ZM973.794 1494.92C969.506 1523.33 976.526 1557.28 999.052 1576.76C1028.95 1602.62 1078.64 1599.92 1105.99 1571.42C1117.97 1558.94 1124.05 1541.29 1126.59 1524.47C1131.19 1494.01 1120.79 1459.25 1095.71 1440.25C1046.84 1403.24 982.382 1438.06 973.794 1494.92Z" fill="#12104B"/>
<path fill-rule="evenodd" clip-rule="evenodd" d="M1091.15 949.535C1110.19 945.663 1130.7 947.491 1150.06 944.715C1213.55 935.596 1276.4 923.219 1333.14 891.812C1400.21 854.687 1439.3 794.926 1480.61 732.837C1519.28 674.721 1557.93 616.577 1596.49 558.394C1615.15 530.239 1632.23 499.723 1652.95 473.092C1663.53 478.987 1670.7 496.815 1677.74 506.538C1695.83 531.502 1713 557.136 1730.19 582.721C1736.38 591.95 1747.53 602.505 1750.87 613.031C1750.94 623.059 1735.76 637.446 1730.4 645.934C1711.41 676.017 1691.63 705.618 1672.4 735.546C1652.41 766.654 1631.06 797.025 1611.67 828.499C1583.28 874.599 1551.66 924.416 1498.07 943.192C1473.85 951.674 1448.46 950.471 1423.19 950.582C1389.03 950.726 1354.87 950.892 1320.71 950.937C1269.91 951.009 1219.1 951.003 1168.33 950.964C1148.94 950.948 1129.59 951.258 1110.2 951.529C1107.27 951.568 1090.43 953.053 1091.15 949.535Z" fill="#10124D"/>
<path fill-rule="evenodd" clip-rule="evenodd" d="M1281.39 1245.27C1285.37 1240.07 1297.67 1242.07 1304.09 1242.2C1325.94 1242.65 1347.92 1243.28 1369.79 1242.55C1373.3 1252.31 1370.29 1267.91 1370.32 1278.42C1370.38 1305.82 1370.8 1333.21 1371.03 1360.61C1371.58 1426.46 1371.91 1492.29 1371.88 1558.14C1371.86 1593.58 1369.31 1630.2 1372.49 1665.51C1342.84 1662.63 1312.43 1667.55 1282.75 1665.23C1280.28 1525.27 1284.63 1385.25 1281.39 1245.27Z" fill="#13114D"/>
<path fill-rule="evenodd" clip-rule="evenodd" d="M1420.02 1356.39C1443.21 1354.83 1466.47 1355.41 1489.71 1355.43C1495.1 1355.45 1509.81 1352.66 1513.7 1355.87C1536.56 1427.22 1568.58 1495.92 1592.76 1566.87C1596.9 1563.51 1598.04 1554.27 1599.51 1549.33C1603.33 1536.36 1608.41 1523.42 1613.17 1510.74C1625.77 1477.21 1638.44 1443.71 1650.96 1410.15C1657.52 1392.59 1662.59 1371.55 1672.79 1355.83C1703.78 1353.99 1735.28 1355.16 1766.31 1355.46C1731.8 1440.42 1697.07 1525.38 1663.04 1610.59C1646.12 1652.94 1633.32 1703.64 1600.94 1737.34C1566.81 1772.85 1512.02 1780.98 1466.84 1763.73C1455.37 1759.36 1434.91 1752.52 1428.9 1740.94C1436.07 1718.89 1450.56 1699.55 1458.43 1677.86C1480.53 1690.02 1509.3 1708.07 1533.57 1689.77C1538.81 1685.82 1543.9 1680.06 1545.31 1673.47C1546.95 1665.78 1539.67 1654.24 1536.86 1647.41C1528.91 1628.06 1521.97 1608.29 1514.35 1588.82C1483.95 1511.11 1452.62 1433.14 1420.02 1356.39Z" fill="#110F4A"/>
<path fill-rule="evenodd" clip-rule="evenodd" d="M1524.55 278.432C1548.34 266.56 1570.97 252.371 1594.69 240.233C1698 187.346 1801 133.518 1903.28 78.6703C1933.71 62.349 1964.39 46.4321 1994.74 29.9501C2012.47 20.3213 2030.59 7.60665 2049.15 0C2053.17 19.6233 2050.59 41.7617 2051.62 61.7839C2054.14 111.008 2055.48 160.41 2056.83 209.684C2059.11 292.349 2062.63 374.958 2064.32 457.623C2064.74 478.388 2068.34 499.69 2068.01 520.271C2055.16 511.23 2046.13 494.615 2035.78 482.925C2010.35 454.205 1985.54 424.942 1960.2 396.15C1952.02 386.848 1944.29 377.108 1935.8 368.094C1932.13 364.211 1929.05 358.632 1924.07 356.665C1912.08 381.706 1891.44 404.188 1876.18 427.413C1867.07 441.291 1857.75 461.85 1844.98 472.537C1808.42 457.579 1774.86 433.457 1738.88 416.737C1730.65 412.92 1721.77 408.432 1712.65 407.546C1709.24 407.213 1700.35 408.726 1698.13 406.288C1721.15 376.438 1740.47 342.449 1760.4 310.454C1765.55 302.188 1771.05 294.15 1776.42 286.033C1778.26 283.258 1781.96 280.798 1781.9 277.191C1719.04 281.125 1655.06 277.95 1592.03 279.197C1576.17 279.512 1560.3 279.219 1544.43 279.524C1537.77 279.651 1530.08 283.003 1524.55 278.432Z" fill="#10104B"/>
<path fill-rule="evenodd" clip-rule="evenodd" d="M1585.5 952.339C1615.36 930.948 1636.01 895.646 1655.68 865.33C1681.94 824.865 1709.23 785.087 1735.39 744.544C1747.05 726.455 1758.88 708.66 1771.12 690.976C1776.06 683.857 1781.87 672.76 1789.1 668.045C1796.11 676.361 1800.59 686.787 1806.49 695.895C1817.91 713.474 1829.01 731.275 1840.58 748.749C1848.49 760.693 1856.16 772.821 1864.4 784.555C1868.18 789.929 1874.15 795.707 1876.7 801.679C1863.59 830.848 1840.97 858.039 1823.54 884.81C1809.41 906.51 1793.04 934.411 1768.49 945.596C1758.5 950.15 1747.65 950.012 1736.97 951.12C1715.75 953.319 1693.85 952.111 1672.5 952.195C1650.1 952.283 1627.7 952.25 1605.3 952.693C1601.35 952.771 1586.63 956.239 1585.5 952.339Z" fill="#3161C9"/>
<path fill-rule="evenodd" clip-rule="evenodd" d="M1727.35 471.397C1800.83 513.596 1873.82 557.336 1947.53 599.474C1966.56 610.355 1985.55 621.352 2004.43 632.521C2009.2 635.347 2019.92 644.942 2025.4 644.383C2071.19 601.79 2119.63 561.978 2166.11 520.1C2236.71 456.477 2307.97 393.618 2379.02 330.521C2467.09 252.311 2552.62 170.422 2642.51 94.3828C2645.27 96.1834 2634.55 107.491 2633.17 109.136C2621.43 123.158 2610.8 138.1 2598.99 152.084C2452.15 335.873 2306 520.333 2160.48 705.131C2126.27 748.582 2092.1 792.466 2055.98 834.327C2038.42 854.676 2021.5 874.494 1992.03 869.458C1981.59 863.53 1974.84 846.976 1968.43 837.197C1951.58 811.513 1934.61 785.879 1917.83 760.161C1873.42 692.106 1828.7 624.366 1783.76 556.654C1765.23 528.726 1742.38 501.269 1727.35 471.397Z" fill="#3161C9"/>
<path fill-rule="evenodd" clip-rule="evenodd" d="M1817.26 1265.48C1846.45 1259.35 1880.93 1263.98 1910.74 1263.92C1979.2 1263.8 2057.63 1252.47 2116.24 1295.51C2195.3 1353.57 2177.61 1493.88 2087.67 1530.56C2112.43 1563.51 2134.14 1600.43 2155.21 1635.86C2160.17 1644.21 2164.9 1652.82 2170.34 1660.88C2170.8 1661.56 2175.83 1666.41 2175.72 1666.68C2165.65 1667.66 2153.73 1665.85 2143.39 1665.69C2118.27 1665.33 2092.95 1664.67 2067.85 1665.79C2064.94 1664.3 2063.19 1659.11 2061.49 1656.39C2056.73 1648.78 2051.92 1641.18 2047.31 1633.48C2030.64 1605.65 2013.09 1578.24 1996.22 1550.53C1990.57 1547.54 1977.75 1549.64 1971.3 1549.62C1952.21 1549.55 1931.86 1547.08 1912.93 1549.59C1913.91 1574.47 1912.77 1599.72 1912.79 1624.65C1912.8 1637.57 1915.16 1653.15 1912.29 1665.7C1880.93 1664.28 1848.36 1668.7 1817.2 1665.21C1814.81 1532.11 1821.38 1398.62 1817.26 1265.48ZM1912.86 1347.28C1912.43 1347.9 1912 1348.52 1911.57 1349.14C1911.78 1389.25 1914.52 1430.1 1912.45 1470.15C1938.02 1468.29 1963.79 1469.57 1989.47 1469.66C2005.62 1469.72 2023.88 1469.92 2038.68 1462.58C2079.63 1442.27 2084.59 1378.06 2043.04 1355.29C2025.84 1345.87 2006.71 1347.03 1987.71 1346.97C1962.8 1346.88 1937.75 1346.34 1912.86 1347.28Z" fill="#3161C9"/>
<path fill-rule="evenodd" clip-rule="evenodd" d="M1899.37 497.231C1909.82 482.068 1920.24 466.982 1929.99 451.342C1942.86 460.306 1953 477.813 1963.28 489.696C1978.26 506.987 1993.16 524.339 2008.08 541.685C2014.18 548.782 2022.49 555.37 2027.46 563.253C2024.99 567.342 2021.79 570.295 2017.8 572.854C2008.08 573.924 1990.02 557.342 1981.88 552.034C1955.68 534.954 1926.32 514.672 1897.24 503.148C1898.06 498.827 1897.3 500.777 1899.37 497.231Z" fill="#3161C9"/>
<path fill-rule="evenodd" clip-rule="evenodd" d="M2215 1486.6C2223.78 1448.16 2236.74 1415.57 2266.71 1388.37C2327.53 1333.15 2434.48 1337.57 2490.63 1396.87C2514.57 1422.15 2528.16 1458.5 2530.21 1492.86C2531.15 1508.65 2527.06 1527.2 2529.94 1542.5C2455.4 1546.91 2379.38 1536.15 2305.06 1543.74C2309.26 1552.3 2312.53 1560.44 2319.03 1567.68C2345.16 1596.75 2389.05 1603.74 2424.98 1589.85C2440.06 1584.02 2449.45 1573.84 2462.05 1564.48C2469.28 1567.27 2474.52 1576.38 2479.79 1581.9C2490.17 1592.78 2501.73 1602.58 2512.06 1613.47C2497.48 1637.21 2467.09 1654.32 2441.3 1662.31C2378.95 1681.64 2307.92 1669.11 2258.44 1626.1C2220.55 1593.15 2207.78 1534.48 2215 1486.6ZM2303.67 1475.34C2302.92 1478.21 2302.25 1480.85 2301.89 1483.8C2313.21 1488.52 2330.67 1485.38 2342.84 1485.4C2365.93 1485.44 2389.01 1485.38 2412.1 1485.44C2422.35 1485.46 2433.73 1483.92 2443.84 1485.49C2438.55 1437.66 2388.57 1408.78 2344.52 1429.13C2323.51 1438.84 2313.53 1455.49 2303.67 1475.34Z" fill="#3161C9"/>
<path fill-rule="evenodd" clip-rule="evenodd" d="M2569.43 1558.54C2574.28 1542.45 2578.99 1528.17 2589.55 1514.66C2631.41 1461.08 2715.98 1479.21 2773.94 1481.78C2773.26 1454.57 2751.38 1434.74 2725.68 1430.65C2688.07 1424.67 2651.5 1431.99 2616.12 1444.42C2611.49 1433.76 2610.34 1421.26 2607.24 1410.07C2604.06 1398.59 2598.15 1386.6 2596.37 1374.93C2623.66 1363.52 2652.34 1357.16 2681.47 1352.9C2702.33 1349.85 2724.63 1350.6 2745.51 1352.85C2761.74 1354.59 2777.14 1358.31 2792.42 1364.06C2825.1 1376.35 2849.73 1403.45 2858.95 1437.15C2864.3 1456.71 2864.07 1477.71 2864.19 1497.84C2864.53 1553.61 2860.84 1610 2863.15 1665.67C2833.47 1665.02 2803.37 1666.27 2773.76 1664.58C2774.01 1656.49 2775.64 1645.8 2772.85 1638.09C2759.97 1648.83 2747.56 1658.57 2731.52 1664.22C2672.43 1685.05 2584.98 1663.91 2569.96 1595.48C2567.28 1583.33 2566.94 1570.77 2569.43 1558.54ZM2658.2 1558.42C2645.66 1601.9 2695.5 1617.01 2728.74 1608.43C2746.34 1603.9 2765.11 1589.95 2771.05 1572.28C2774.64 1561.59 2772.84 1549.25 2772.14 1538.24C2761.17 1533.48 2746.27 1533.36 2734.39 1532.68C2704.75 1531 2674.35 1528.83 2658.2 1558.42Z" fill="#3161C9"/>
<path fill-rule="evenodd" clip-rule="evenodd" d="M2921.34 1483.82C2928.21 1451.02 2939.66 1416.81 2964.24 1392.61C3016.76 1340.89 3110.79 1332.33 3163.34 1389.13C3165.15 1372.75 3161.39 1353.29 3161.4 1336.53C3161.41 1305.11 3164.02 1272.93 3161.34 1241.61C3192.76 1241.64 3224.19 1241.6 3255.61 1241.35C3253.66 1249.95 3255.48 1261.12 3255.51 1270.06C3255.58 1290.37 3255.59 1310.69 3255.61 1331C3255.66 1394.72 3255.81 1458.43 3255.73 1522.14C3255.69 1554.46 3255.57 1586.78 3255.53 1619.09C3255.51 1632.94 3252.34 1651.86 3255.75 1665.15C3226.55 1661.58 3195.28 1665.29 3165.84 1664.74C3165.21 1653.41 3165.95 1642.11 3165.37 1630.83C3160.07 1631.14 3150 1645.1 3144.82 1648.61C3127.03 1660.69 3106.23 1668.62 3084.77 1670.58C3068.1 1672.11 3051.66 1671.65 3035.34 1667.67C2953.01 1647.62 2908.74 1564.94 2921.34 1483.82ZM3012.62 1494.93C3007.17 1529.04 3022.55 1566.83 3052.91 1584.2C3097.73 1609.85 3153.86 1582.05 3162.12 1531.77C3167.81 1497.1 3158.27 1458.59 3128.03 1437.71C3080.49 1404.87 3020.89 1443.18 3012.62 1494.93Z" fill="#3161C9"/>
<path fill-rule="evenodd" clip-rule="evenodd" d="M3297.41 1358.64C3298.35 1357.81 3299.29 1356.99 3300.24 1356.17C3320.93 1355.85 3341.63 1355.63 3362.34 1355.5C3371.16 1355.44 3383.64 1353.04 3391.91 1356C3409.42 1406.63 3430.65 1456.22 3449.96 1506.22C3455.59 1520.8 3461.43 1535.32 3466.73 1550.04C3468.54 1555.05 3469.51 1562.9 3473.15 1566.78C3483.22 1533.37 3496.84 1500.86 3508.8 1468.06C3522.23 1431.26 3534.2 1393.16 3549.78 1357.25C3580.75 1355.51 3612.28 1356.81 3643.29 1356.9C3638.96 1376.73 3626.09 1397.38 3618.58 1416.43C3599.43 1465.01 3579.35 1513.28 3560.96 1562.16C3547.49 1597.96 3534.75 1634.2 3519.88 1669.44C3509.93 1693.04 3499.54 1718.09 3482.59 1737.72C3439.47 1787.66 3355.98 1782.73 3309.6 1741.22C3315.22 1719.78 3330.46 1698.46 3340.25 1678.54C3346.26 1678.54 3354.36 1686.11 3359.62 1689.14C3375.62 1698.39 3396.69 1704.2 3412.14 1690.7C3417.17 1686.31 3424.25 1678.94 3425.01 1671.99C3425.8 1664.73 3420.4 1655.96 3417.7 1649.44C3411.32 1634.05 3405.5 1618.45 3399.01 1603.1C3378.2 1553.93 3357.44 1504.72 3336.92 1455.42C3323.57 1423.35 3312.87 1389.76 3297.41 1358.64Z" fill="#3161C9"/>
</svg>
